<svg data-v-423bf9ae="" xmlns="http://www.w3.org/2000/svg" viewBox="0 0 405.25909830002524 186" class="iconAboveSlogan"><!----><!----><!----><g data-v-423bf9ae="" id="bcb43b59-ec51-47af-9841-2301f57c271e" fill="#0C203C" transform="matrix(5.758157347474804,0,0,5.758157347474804,-6.046058626499928,84.80421966514864)"><path d="M1.05 13.29L1.05 12.98Q1.58 9.80 1.58 5.59L1.58 5.59Q1.58 4.47 1.53 3.78L1.53 3.78L1.53 3.47L3.84 3.29Q3.98 3.96 4.43 5.38Q4.89 6.79 6.62 11.24L6.62 11.24Q7.77 8.06 8.37 6.09Q8.97 4.12 9.09 3.50L9.09 3.50L11.48 3.25L11.48 3.56Q11.47 3.85 11.47 4.74Q11.47 5.63 11.63 7.99Q11.79 10.35 12.17 12.98L12.17 12.98L12.17 13.29L9.86 13.29L9.86 12.98Q9.90 12.15 9.90 11.12L9.90 11.12Q9.90 8.51 9.65 6.22L9.65 6.22Q7.92 11.03 7.28 13.26L7.28 13.26L5.59 13.43Q5.59 12.77 3.08 6.15L3.08 6.15Q2.93 8.61 2.93 10.24Q2.93 11.87 2.97 12.98L2.97 12.98L2.97 13.29L1.05 13.29ZM17.86 11.68L17.86 10.49Q17.36 10.30 16.75 10.30Q16.14 10.30 15.82 10.53L15.82 10.53Q15.61 10.79 15.61 11.23L15.61 11.23Q15.61 12.32 16.56 12.32L16.56 12.32Q17.35 12.32 17.86 11.68L17.86 11.68ZM15.99 13.54L15.99 13.54Q15.11 13.54 14.43 13.01Q13.76 12.47 13.76 11.47L13.76 11.47Q13.76 9.52 16.60 9.52L16.60 9.52L17.85 9.58L17.85 8.72Q17.85 7.99 17.49 7.55Q17.12 7.10 16.37 7.10L16.37 7.10Q16.20 7.10 15.93 7.27Q15.67 7.45 15.48 7.63L15.48 7.63Q14.91 8.18 14.56 8.53L14.56 8.53Q13.86 7.70 13.80 6.86L13.80 6.86Q15.60 6.30 16.83 6.30Q18.06 6.30 18.89 6.87Q19.71 7.45 19.71 8.68L19.71 8.68L19.71 10.88Q19.71 11.51 19.92 12.08Q20.13 12.66 20.44 12.85L20.44 12.85L20.47 13.16L18.47 13.58Q18.24 13.16 18.05 12.40L18.05 12.40Q17.68 12.80 17.46 12.98Q17.23 13.17 16.84 13.36Q16.44 13.54 15.99 13.54ZM24.72 12.38L24.72 12.38Q25.52 12.38 25.52 11.61L25.52 11.61Q25.52 10.89 24.16 10.53L24.16 10.53Q23.60 10.37 23.04 10.18Q22.48 9.98 22.09 9.55Q21.70 9.11 21.70 8.44L21.70 8.44Q21.70 7.48 22.57 6.94Q23.44 6.40 24.68 6.40Q25.93 6.40 27.29 7.00L27.29 7.00Q27.22 7.62 26.53 8.48L26.53 8.48Q25.97 7.92 25.37 7.63Q24.77 7.34 24.32 7.34Q23.87 7.34 23.63 7.43L23.63 7.43Q23.42 7.62 23.42 8.03Q23.42 8.44 23.82 8.67Q24.22 8.89 24.79 9.02Q25.37 9.16 25.94 9.35Q26.52 9.55 26.91 10.02Q27.31 10.49 27.31 11.24L27.31 11.24Q27.31 12.33 26.47 12.89Q25.62 13.44 24.22 13.44Q22.82 13.44 21.55 12.64L21.55 12.64Q21.60 11.80 22.18 11.09L22.18 11.09Q23.56 12.38 24.72 12.38ZM31.78 12.38L31.78 12.38Q32.58 12.38 32.58 11.61L32.58 11.61Q32.58 10.89 31.22 10.53L31.22 10.53Q30.66 10.37 30.10 10.18Q29.54 9.98 29.15 9.55Q28.76 9.11 28.76 8.44L28.76 8.44Q28.76 7.48 29.62 6.94Q30.49 6.40 31.74 6.40Q32.98 6.40 34.34 7.00L34.34 7.00Q34.27 7.62 33.59 8.48L33.59 8.48Q33.03 7.92 32.42 7.63Q31.82 7.34 31.37 7.34Q30.93 7.34 30.69 7.43L30.69 7.43Q30.48 7.62 30.48 8.03Q30.48 8.44 30.88 8.67Q31.28 8.89 31.85 9.02Q32.42 9.16 33.00 9.35Q33.57 9.55 33.97 10.02Q34.37 10.49 34.37 11.24L34.37 11.24Q34.37 12.33 33.52 12.89Q32.68 13.44 31.28 13.44Q29.88 13.44 28.60 12.64L28.60 12.64Q28.66 11.80 29.23 11.09L29.23 11.09Q30.62 12.38 31.78 12.38ZM37.86 3.16L38.01 3.25Q38.14 3.36 38.19 3.72Q38.23 4.09 38.23 4.28Q38.23 4.48 38.21 4.63L38.21 4.63L38.08 4.75Q37.46 4.93 36.47 5.00L36.47 5.00L36.32 4.93Q36.20 4.75 36.14 4.33Q36.08 3.91 36.08 3.74Q36.08 3.58 36.08 3.53L36.08 3.53L36.20 3.42Q36.96 3.16 37.70 3.16L37.70 3.16L37.86 3.16ZM38.28 7.78L38.28 7.78L38.28 10.78Q38.28 12.11 38.68 12.98L38.68 12.98L38.68 13.29L36.23 13.29L36.23 12.98Q36.47 12.26 36.47 11.09L36.47 11.09L36.47 9.02Q36.47 8.25 36.23 7.73Q35.99 7.22 35.63 7.03L35.63 7.03L35.63 6.72L38.19 6.24L38.36 6.52Q38.28 6.85 38.28 7.78ZM41.69 6.37L41.69 6.54Q41.69 6.87 42.27 8.64L42.27 8.64L43.12 11.10L44.07 8.09Q44.32 7.34 44.32 6.65L44.32 6.65L44.32 6.48L46.33 6.48L46.33 6.79Q45.92 7.06 45.53 8.16L45.53 8.16L43.93 12.66L43.74 13.38L42.03 13.44L41.78 12.63L40.11 8.11Q39.96 7.69 39.70 7.31Q39.45 6.93 39.28 6.86L39.28 6.86L39.28 6.55L41.69 6.37ZM50.08 13.55L50.08 13.55Q48.86 13.55 47.89 12.64Q46.93 11.73 46.93 10.18Q46.93 8.64 47.95 7.47Q48.97 6.30 50.60 6.30L50.60 6.30Q51.97 6.30 52.64 7.18Q53.31 8.06 53.31 9.62L53.31 9.62L52.78 10.16L48.94 10.16Q48.96 11.17 49.48 11.72Q50.01 12.26 50.74 12.26Q51.48 12.26 52.96 11.49L52.96 11.49L53.31 12.03Q53.05 12.28 52.71 12.54Q52.37 12.81 51.58 13.18Q50.79 13.55 50.08 13.55ZM50.27 7.20L50.27 7.20Q49.76 7.20 49.45 7.41L49.45 7.41Q49.22 7.76 49.10 8.33Q48.97 8.90 48.96 9.35L48.96 9.35L51.41 9.21Q51.41 7.20 50.27 7.20ZM59.08 5.39L59.08 8.36L62.36 8.36L62.34 9.58L59.08 9.58L59.08 12.66L57.61 12.66L57.61 9.58L54.46 9.58L54.47 8.34L57.61 8.36L57.62 5.38L59.08 5.39ZM68.15 5.39L68.15 8.36L71.43 8.36L71.41 9.58L68.15 9.58L68.15 12.66L66.68 12.66L66.68 9.58L63.53 9.58L63.55 8.34L66.68 8.36L66.70 5.38L68.15 5.39Z"></path></g><defs data-v-423bf9ae=""><linearGradient data-v-423bf9ae="" gradientTransform="rotate(25)" id="e267c597-73c2-4bf6-bacc-6e6ec26b1311" x1="0%" y1="0%" x2="100%" y2="0%"><stop data-v-423bf9ae="" offset="0%" style="stop-color: rgb(40, 139, 88); stop-opacity: 1;"></stop><stop data-v-423bf9ae="" offset="100%" style="stop-color: rgb(21, 34, 241); stop-opacity: 1;"></stop></linearGradient></defs><g data-v-423bf9ae="" id="2f84d501-f640-4ab1-a4f7-212d479d9a38" transform="matrix(2.8125,0,0,2.8125,158,0)" stroke="none" fill="url(#e267c597-73c2-4bf6-bacc-6e6ec26b1311)"><path d="M11.579 32H32L21.789 14.314z"></path><circle cx="8.683" cy="8.683" r="8.683"></circle></g><!----><g data-v-423bf9ae="" id="67a6982d-7725-4193-ab30-867152491f94" fill="#0C203C" transform="matrix(0.6322689360817237,0,0,0.6322689360817237,52.13838594350983,201.31633009232553)"><path d="M4.19 6.69L4.19 6.69Q3.63 6.69 3.33 6.38Q3.02 6.06 3.02 5.61L3.02 5.61Q3.02 5.50 3.06 5.35Q3.09 5.19 3.15 5.08L3.15 5.08Q3.33 5.17 3.69 5.20Q4.05 5.24 4.52 5.24L4.52 5.24Q5.24 5.24 6.14 5.17Q7.04 5.11 7.87 5.04Q8.69 4.97 9.32 4.91Q9.95 4.84 10.14 4.84L10.14 4.84Q10.65 4.84 10.88 5.23Q11.12 5.61 11.23 6.26L11.23 6.26Q10.86 6.23 10.51 6.21Q10.15 6.19 9.90 6.19L9.90 6.19Q9.45 6.19 9.00 6.22Q8.54 6.24 8.08 6.30L8.08 6.30Q7.88 6.71 7.64 7.26Q7.41 7.81 7.17 8.41Q6.94 9.02 6.73 9.61Q6.52 10.21 6.37 10.68L6.37 10.68Q6.06 11.61 5.83 12.39Q5.60 13.17 5.42 13.85Q5.25 14.53 5.12 15.15Q5.00 15.76 4.90 16.35L4.90 16.35Q3.96 16.21 3.33 15.18L3.33 15.18Q3.44 14.74 3.60 14.23Q3.77 13.72 3.98 13.07Q4.20 12.42 4.49 11.59Q4.79 10.77 5.17 9.72L5.17 9.72Q5.31 9.32 5.46 8.90Q5.61 8.47 5.76 8.05Q5.91 7.63 6.03 7.24Q6.15 6.85 6.23 6.52L6.23 6.52Q5.64 6.59 5.12 6.64Q4.59 6.69 4.19 6.69ZM14.88 14.90L14.88 14.90Q14.95 14.49 15.13 13.82Q15.30 13.16 15.54 12.41Q15.78 11.66 16.04 10.91Q16.31 10.15 16.56 9.55L16.56 9.55Q16.74 9.11 16.88 8.87Q17.02 8.62 17.19 8.46L17.19 8.46Q17.39 8.48 17.60 8.55Q17.81 8.62 18.00 8.72Q18.20 8.82 18.35 8.93Q18.51 9.03 18.59 9.13L18.59 9.13Q18.21 9.58 17.93 10.15Q17.64 10.72 17.35 11.62L17.35 11.62Q18.10 10.95 18.68 10.33Q19.26 9.72 19.77 8.96L19.77 8.96Q19.85 8.89 20.06 8.89L20.06 8.89Q20.26 8.89 20.44 8.95Q20.62 9.02 20.69 9.13L20.69 9.13Q20.44 9.80 20.44 10.46L20.44 10.46Q20.44 11.07 20.62 11.38L20.62 11.38Q20.61 11.47 20.43 11.70Q20.26 11.94 20.05 12.15L20.05 12.15Q19.67 11.96 19.38 11.61Q19.08 11.27 18.94 10.86L18.94 10.86Q18.28 11.33 17.82 11.77Q17.36 12.21 17.03 12.75Q16.70 13.29 16.47 13.99Q16.24 14.69 16.03 15.65L16.03 15.65Q15.90 15.64 15.73 15.56Q15.55 15.48 15.38 15.37Q15.20 15.26 15.06 15.13Q14.92 15.01 14.88 14.90ZM32.69 9.52L32.69 9.52Q32.83 9.52 33.02 9.57Q33.21 9.62 33.36 9.70Q33.52 9.77 33.62 9.86Q33.73 9.94 33.73 10.01L33.73 10.01Q33.45 10.60 33.21 11.19Q32.97 11.79 32.80 12.33Q32.63 12.88 32.54 13.36Q32.45 13.83 32.45 14.18L32.45 14.18Q32.45 14.57 32.54 14.83Q32.62 15.09 32.82 15.20L32.82 15.20Q32.65 15.32 32.38 15.39Q32.12 15.46 31.91 15.46L31.91 15.46Q31.15 15.46 31.15 14.42L31.15 14.42Q31.15 13.62 31.68 12.24L31.68 12.24Q31.40 12.88 31.04 13.45Q30.67 14.01 30.30 14.45Q29.92 14.88 29.53 15.15Q29.15 15.43 28.83 15.48L28.83 15.48Q28.31 15.46 27.99 14.99Q27.66 14.52 27.66 13.79L27.66 13.79Q27.66 13.01 28 12.14Q28.34 11.27 28.86 10.53Q29.39 9.79 30.00 9.29Q30.62 8.79 31.19 8.76L31.19 8.76Q31.33 8.81 31.51 8.93Q31.68 9.06 31.84 9.23Q32.00 9.39 32.12 9.57Q32.23 9.74 32.24 9.87L32.24 9.87Q31.68 9.95 31.09 10.42Q30.49 10.88 30.01 11.53Q29.53 12.18 29.22 12.92Q28.91 13.66 28.91 14.31L28.91 14.31Q28.91 14.57 29.11 14.64L29.11 14.64Q29.51 14.56 30.04 13.95Q30.58 13.34 31.33 12.07L31.33 12.07Q31.47 11.82 31.65 11.51Q31.82 11.20 32.00 10.86Q32.19 10.53 32.36 10.18Q32.54 9.84 32.69 9.52ZM43.71 8.39L43.71 8.39Q44.07 8.50 44.39 8.88Q44.72 9.27 44.87 9.73L44.87 9.73Q44.72 10.11 44.39 10.64Q44.07 11.17 43.75 11.72Q43.43 12.28 43.17 12.78Q42.91 13.27 42.87 13.59L42.87 13.59Q43.09 13.36 43.37 13.04Q43.64 12.73 43.90 12.41Q44.16 12.10 44.38 11.84Q44.60 11.58 44.73 11.45L44.73 11.45Q45.00 11.17 45.36 10.80Q45.72 10.43 46.12 10.10Q46.52 9.77 46.93 9.54Q47.33 9.31 47.67 9.31L47.67 9.31Q48.03 9.31 48.28 9.55Q48.52 9.80 48.66 10.07L48.66 10.07Q48.66 10.09 48.56 10.14Q48.45 10.19 48.26 10.42L48.26 10.42Q48.06 10.67 47.82 11.11Q47.57 11.55 47.34 12.06Q47.11 12.57 46.96 13.10Q46.80 13.64 46.80 14.07L46.80 14.07Q46.80 14.42 46.89 14.52Q46.98 14.62 47.15 14.62L47.15 14.62Q47.31 14.62 47.47 14.55Q47.64 14.48 47.74 14.48L47.74 14.48Q47.80 14.50 47.83 14.60Q47.87 14.69 47.87 14.76L47.87 14.76Q47.75 14.85 47.60 14.95Q47.45 15.05 47.28 15.13Q47.11 15.22 46.95 15.27Q46.79 15.33 46.66 15.33L46.66 15.33Q46.26 15.33 46.00 15.21Q45.74 15.09 45.59 14.90Q45.44 14.70 45.39 14.43Q45.33 14.15 45.33 13.85L45.33 13.85Q45.33 13.68 45.36 13.47Q45.39 13.26 45.47 12.97Q45.56 12.68 45.71 12.29Q45.86 11.89 46.10 11.33L46.10 11.33Q46.07 11.33 45.72 11.52Q45.37 11.72 44.97 12.12L44.97 12.12Q44.31 12.75 43.79 13.37Q43.26 13.99 42.71 14.74L42.71 14.74Q42.41 15.18 42.17 15.48Q41.94 15.78 41.78 15.88L41.78 15.88Q41.48 15.71 41.34 15.41Q41.20 15.11 41.13 14.78L41.13 14.78Q41.13 14.52 41.21 14.11Q41.29 13.71 41.42 13.21Q41.55 12.71 41.75 12.17Q41.94 11.62 42.18 11.07L42.18 11.07Q42.71 9.84 43.16 9.14Q43.60 8.44 43.71 8.39ZM60.83 9.60L60.83 9.60Q60.82 9.87 60.74 10.16Q60.66 10.44 60.55 10.68Q60.44 10.91 60.31 11.06Q60.19 11.21 60.07 11.21L60.07 11.21Q59.92 11.20 59.89 11.00L59.89 11.00Q59.89 10.96 59.93 10.87Q59.96 10.78 60.00 10.67Q60.05 10.56 60.08 10.44Q60.12 10.33 60.12 10.25L60.12 10.25Q60.12 10.05 60.03 9.92Q59.93 9.79 59.78 9.79L59.78 9.79Q59.22 9.79 58.93 10.49Q58.63 11.19 58.63 12.54L58.63 12.54Q58.63 12.68 58.65 12.71L58.65 12.71Q58.94 12.70 59.17 12.69Q59.40 12.68 59.63 12.68L59.63 12.68Q59.64 12.71 59.64 12.80L59.64 12.80Q59.64 12.92 59.58 12.98L59.58 12.98Q59.26 13.05 59.07 13.10Q58.88 13.15 58.79 13.19Q58.69 13.23 58.67 13.28Q58.65 13.33 58.65 13.41L58.65 13.41Q58.65 13.52 58.65 13.64Q58.66 13.75 58.66 13.92L58.66 13.92Q58.66 15.09 58.02 15.81Q57.39 16.52 56.25 16.63L56.25 16.63Q56.06 16.62 55.85 16.52Q55.64 16.42 55.45 16.27Q55.26 16.11 55.12 15.93Q54.98 15.74 54.92 15.54L54.92 15.54Q54.92 15.01 55.15 14.53Q55.37 14.04 55.76 13.67Q56.14 13.30 56.67 13.07Q57.19 12.84 57.81 12.80L57.81 12.80Q57.81 12.45 57.74 12.11Q57.67 11.77 57.59 11.46Q57.51 11.14 57.44 10.84Q57.37 10.54 57.37 10.25L57.37 10.25Q57.37 9.87 57.53 9.50Q57.68 9.13 57.93 8.81Q58.18 8.50 58.52 8.27Q58.86 8.05 59.22 7.97L59.22 7.97Q59.37 8.01 59.63 8.21Q59.89 8.41 60.14 8.67Q60.40 8.92 60.59 9.18Q60.79 9.44 60.83 9.60ZM56.21 15.99L56.21 15.99Q56.55 15.85 56.85 15.58Q57.15 15.32 57.37 14.98Q57.60 14.64 57.73 14.27Q57.86 13.89 57.86 13.52L57.86 13.52Q57.58 13.57 57.25 13.78Q56.91 14 56.62 14.30Q56.32 14.60 56.13 14.92Q55.93 15.25 55.93 15.48L55.93 15.48Q55.93 15.79 56.21 15.99ZM68.61 19.22L68.61 19.22Q68.26 19.08 68.19 18.69L68.19 18.69Q68.14 18.31 67.72 18.07L67.72 18.07Q67.83 17.36 67.97 16.63Q68.11 15.90 68.33 14.97Q68.54 14.04 68.87 12.80Q69.20 11.56 69.71 9.80L69.71 9.80Q69.24 9.80 68.98 9.81Q68.71 9.83 68.46 9.87L68.46 9.87Q68.40 9.81 68.37 9.72Q68.33 9.62 68.33 9.53L68.33 9.53Q68.47 9.48 68.91 9.39Q69.34 9.30 69.86 9.23L69.86 9.23Q70.20 8.16 70.63 7.32Q71.06 6.47 71.57 5.87Q72.07 5.26 72.63 4.94Q73.19 4.62 73.77 4.62L73.77 4.62Q73.93 4.62 74.09 4.64Q74.24 4.66 74.33 4.66L74.33 4.66Q74.45 4.56 74.66 4.49Q74.87 4.41 75.03 4.41L75.03 4.41Q75.19 4.41 75.46 4.59L75.46 4.59Q75.35 4.79 75.22 5.12Q75.10 5.46 75.01 5.78L75.01 5.78Q74.66 6.82 74.27 7.13L74.27 7.13Q74.12 7.13 74.10 6.72L74.10 6.72Q74.09 6.43 74.02 6.15L74.02 6.15Q73.96 6.02 73.94 5.92Q73.92 5.82 73.92 5.67L73.92 5.67Q73.92 5.59 73.93 5.47Q73.95 5.35 73.99 5.07L73.99 5.07Q73.75 5.07 73.47 5.36Q73.18 5.66 72.86 6.20Q72.55 6.73 72.23 7.48Q71.90 8.22 71.61 9.11L71.61 9.11L72.79 9.07Q72.86 9.14 72.91 9.39Q72.95 9.63 72.97 9.90L72.97 9.90L71.43 9.81Q70.90 11.40 70.43 12.84Q69.97 14.28 69.61 15.50Q69.24 16.72 68.98 17.68Q68.73 18.63 68.61 19.22ZM81.23 15.67L81.23 15.67Q80.43 15.58 79.95 14.97Q79.48 14.35 79.48 13.40L79.48 13.40Q79.48 12.84 79.65 12.24Q79.81 11.63 80.12 11.07Q80.43 10.50 80.85 10.00Q81.27 9.49 81.76 9.13L81.76 9.13Q82.53 8.55 83.20 8.55L83.20 8.55Q83.65 8.79 84.08 9.55L84.08 9.55Q84.15 9.55 84.21 9.54Q84.27 9.53 84.34 9.53L84.34 9.53Q85.08 9.53 85.08 10.85L85.08 10.85Q85.08 11.73 84.79 12.52Q84.50 13.31 83.99 13.96Q83.48 14.60 82.78 15.04Q82.07 15.48 81.23 15.67ZM81.94 11.26L81.94 11.26Q81.70 11.58 81.49 11.96Q81.28 12.33 81.13 12.72Q80.98 13.10 80.89 13.46Q80.81 13.82 80.81 14.10L80.81 14.10Q80.81 14.43 80.92 14.74Q81.03 15.05 81.17 15.09L81.17 15.09Q81.80 14.95 82.33 14.57Q82.85 14.18 83.24 13.61Q83.62 13.03 83.84 12.31Q84.06 11.58 84.06 10.75L84.06 10.75Q84.06 10.39 84.01 10.18Q83.97 9.97 83.87 9.81L83.87 9.81Q83.26 10.00 82.78 10.40Q82.29 10.81 81.94 11.26ZM92.41 14.90L92.41 14.90Q92.48 14.49 92.66 13.82Q92.83 13.16 93.07 12.41Q93.31 11.66 93.58 10.91Q93.84 10.15 94.09 9.55L94.09 9.55Q94.28 9.11 94.42 8.87Q94.56 8.62 94.72 8.46L94.72 8.46Q94.92 8.48 95.13 8.55Q95.34 8.62 95.54 8.72Q95.73 8.82 95.89 8.93Q96.04 9.03 96.12 9.13L96.12 9.13Q95.75 9.58 95.46 10.15Q95.17 10.72 94.88 11.62L94.88 11.62Q95.63 10.95 96.22 10.33Q96.80 9.72 97.30 8.96L97.30 8.96Q97.38 8.89 97.59 8.89L97.59 8.89Q97.79 8.89 97.97 8.95Q98.15 9.02 98.22 9.13L98.22 9.13Q97.97 9.80 97.97 10.46L97.97 10.46Q97.97 11.07 98.15 11.38L98.15 11.38Q98.14 11.47 97.97 11.70Q97.79 11.94 97.58 12.15L97.58 12.15Q97.20 11.96 96.91 11.61Q96.61 11.27 96.47 10.86L96.47 10.86Q95.82 11.33 95.35 11.77Q94.89 12.21 94.56 12.75Q94.23 13.29 94.00 13.99Q93.77 14.69 93.56 15.65L93.56 15.65Q93.44 15.64 93.26 15.56Q93.09 15.48 92.91 15.37Q92.74 15.26 92.60 15.13Q92.46 15.01 92.41 14.90ZM113.48 10.88L113.48 10.88Q113.26 10.89 112.94 11.16Q112.62 11.44 112.25 11.87Q111.87 12.29 111.48 12.81Q111.08 13.33 110.71 13.84Q110.33 14.35 110.01 14.80Q109.69 15.25 109.47 15.51L109.47 15.51Q109.16 15.39 108.93 15.14Q108.71 14.90 108.61 14.53L108.61 14.53Q108.68 14.10 108.81 13.63Q108.93 13.16 109.14 12.66Q109.34 12.15 109.64 11.60Q109.94 11.05 110.38 10.43L110.38 10.43Q110.17 10.44 109.80 10.73Q109.44 11.02 109.02 11.47Q108.60 11.93 108.15 12.50Q107.70 13.06 107.31 13.61L107.31 13.61Q106.79 14.34 106.45 14.88Q106.11 15.43 105.95 15.53L105.95 15.53Q105.59 15.26 105.45 14.95Q105.31 14.64 105.24 14.27L105.24 14.27Q105.25 13.93 105.34 13.43Q105.43 12.92 105.60 12.39L105.60 12.39Q105.92 11.37 106.44 10.36Q106.95 9.35 107.42 8.51L107.42 8.51Q107.81 8.60 108.13 8.78Q108.44 8.96 108.79 9.31L108.79 9.31Q108.65 9.74 108.36 10.23Q108.07 10.71 107.74 11.24Q107.42 11.77 107.16 12.33Q106.89 12.89 106.81 13.47L106.81 13.47Q107.20 12.91 107.74 12.18Q108.28 11.45 108.84 10.81Q109.41 10.16 109.97 9.72Q110.53 9.27 110.98 9.27L110.98 9.27Q111.15 9.27 111.34 9.32Q111.54 9.38 111.71 9.46Q111.87 9.55 111.99 9.63Q112.10 9.70 112.11 9.74L112.11 9.74Q112.04 10.02 111.78 10.51Q111.52 10.99 111.23 11.52Q110.94 12.05 110.68 12.55Q110.43 13.05 110.39 13.34L110.39 13.34Q111.08 12.40 111.68 11.64Q112.28 10.88 112.81 10.33Q113.34 9.79 113.80 9.49Q114.25 9.20 114.66 9.20L114.66 9.20Q114.94 9.20 115.19 9.34Q115.43 9.49 115.53 9.77L115.53 9.77Q115.40 10.19 115.12 10.78Q114.83 11.37 114.53 12.02Q114.24 12.67 114.01 13.30Q113.78 13.93 113.78 14.43L113.78 14.43Q113.78 14.73 113.86 14.82Q113.95 14.91 114.10 14.91L114.10 14.91Q114.27 14.91 114.42 14.85Q114.56 14.78 114.63 14.78L114.63 14.78Q114.72 14.84 114.73 14.92Q114.74 15.01 114.74 15.08L114.74 15.08Q114.46 15.30 114.17 15.45Q113.88 15.60 113.51 15.60L113.51 15.60Q113.18 15.60 112.96 15.48Q112.74 15.37 112.60 15.18Q112.46 14.98 112.41 14.73Q112.35 14.48 112.35 14.18L112.35 14.18Q112.35 13.71 112.48 13.24Q112.60 12.77 112.78 12.34Q112.95 11.91 113.15 11.54Q113.34 11.17 113.48 10.88ZM123.12 14.24L123.12 14.24Q123.12 14.11 123.14 13.92Q123.16 13.73 123.21 13.42Q123.27 13.10 123.36 12.66Q123.45 12.21 123.59 11.58L123.59 11.58Q123.62 11.44 123.72 11.13Q123.82 10.82 123.98 10.48Q124.14 10.14 124.37 9.81Q124.60 9.49 124.92 9.34L124.92 9.34Q125.16 9.39 125.55 9.63Q125.94 9.86 126.22 10.26L126.22 10.26Q125.90 10.63 125.69 10.99Q125.47 11.35 125.29 11.75Q125.12 12.14 124.97 12.56Q124.82 12.98 124.64 13.44L124.64 13.44Q124.49 13.83 124.36 14.25Q124.24 14.66 124.22 14.97L124.22 14.97Q124.22 15.22 124.22 15.32Q124.21 15.43 124.14 15.43L124.14 15.43Q124.08 15.43 123.91 15.36Q123.75 15.29 123.57 15.14Q123.40 14.99 123.26 14.77Q123.12 14.55 123.12 14.24ZM125.79 8.16L125.79 8.16Q125.79 8.08 125.83 7.91L125.83 7.91Q125.76 7.84 125.71 7.70Q125.66 7.56 125.66 7.45L125.66 7.45Q125.66 7.32 125.70 7.11Q125.73 6.89 125.79 6.64Q125.85 6.38 125.93 6.11Q126.01 5.84 126.10 5.61L126.10 5.61Q126.27 5.61 126.51 5.71Q126.76 5.80 127.01 5.94Q127.26 6.09 127.47 6.27Q127.68 6.44 127.79 6.59L127.79 6.59Q127.64 6.75 127.39 7.02Q127.13 7.29 126.90 7.59Q126.66 7.90 126.46 8.16Q126.27 8.43 126.21 8.54L126.21 8.54Q126.04 8.51 125.92 8.39Q125.79 8.27 125.79 8.16ZM135.67 8.39L135.67 8.39Q136.04 8.50 136.36 8.88Q136.68 9.27 136.84 9.73L136.84 9.73Q136.68 10.11 136.36 10.64Q136.04 11.17 135.72 11.72Q135.39 12.28 135.13 12.78Q134.88 13.27 134.83 13.59L134.83 13.59Q135.06 13.36 135.33 13.04Q135.60 12.73 135.86 12.41Q136.12 12.10 136.35 11.84Q136.57 11.58 136.70 11.45L136.70 11.45Q136.96 11.17 137.33 10.80Q137.69 10.43 138.09 10.10Q138.49 9.77 138.89 9.54Q139.30 9.31 139.64 9.31L139.64 9.31Q140 9.31 140.25 9.55Q140.49 9.80 140.63 10.07L140.63 10.07Q140.63 10.09 140.53 10.14Q140.42 10.19 140.22 10.42L140.22 10.42Q140.03 10.67 139.78 11.11Q139.54 11.55 139.31 12.06Q139.08 12.57 138.92 13.10Q138.77 13.64 138.77 14.07L138.77 14.07Q138.77 14.42 138.86 14.52Q138.95 14.62 139.12 14.62L139.12 14.62Q139.27 14.62 139.44 14.55Q139.61 14.48 139.71 14.48L139.71 14.48Q139.76 14.50 139.80 14.60Q139.83 14.69 139.83 14.76L139.83 14.76Q139.72 14.85 139.57 14.95Q139.41 15.05 139.24 15.13Q139.08 15.22 138.91 15.27Q138.75 15.33 138.63 15.33L138.63 15.33Q138.22 15.33 137.96 15.21Q137.70 15.09 137.56 14.90Q137.41 14.70 137.35 14.43Q137.30 14.15 137.30 13.85L137.30 13.85Q137.30 13.68 137.33 13.47Q137.35 13.26 137.44 12.97Q137.52 12.68 137.68 12.29Q137.83 11.89 138.07 11.33L138.07 11.33Q138.04 11.33 137.69 11.52Q137.34 11.72 136.93 12.12L136.93 12.12Q136.28 12.75 135.75 13.37Q135.23 13.99 134.68 14.74L134.68 14.74Q134.37 15.18 134.14 15.48Q133.91 15.78 133.74 15.88L133.74 15.88Q133.45 15.71 133.31 15.41Q133.17 15.11 133.10 14.78L133.10 14.78Q133.10 14.52 133.18 14.11Q133.25 13.71 133.38 13.21Q133.52 12.71 133.71 12.17Q133.91 11.62 134.15 11.07L134.15 11.07Q134.68 9.84 135.12 9.14Q135.56 8.44 135.67 8.39ZM145.14 19.35L145.14 19.35Q145.14 19.26 145.19 19.19Q145.25 19.12 145.32 19.05L145.32 19.05Q145.49 19.21 145.61 19.29Q145.73 19.38 145.83 19.43Q145.94 19.49 146.05 19.50Q146.16 19.52 146.31 19.52L146.31 19.52Q147.04 19.52 147.70 19.13Q148.36 18.75 148.94 18.02Q149.52 17.29 150.00 16.24Q150.47 15.19 150.84 13.86L150.84 13.86Q150.67 14.03 150.42 14.23Q150.18 14.43 149.91 14.62Q149.65 14.80 149.39 14.95Q149.13 15.11 148.95 15.18L148.95 15.18Q148.71 15.13 148.50 14.97Q148.30 14.81 148.15 14.57Q147.99 14.34 147.91 14.04Q147.83 13.73 147.83 13.40L147.83 13.40Q147.83 12.85 148.03 12.28Q148.23 11.70 148.57 11.15Q148.90 10.60 149.36 10.11Q149.81 9.62 150.33 9.25Q150.84 8.89 151.36 8.67Q151.89 8.46 152.39 8.46L152.39 8.46Q152.88 8.46 153.13 8.66Q153.37 8.86 153.48 9.35L153.48 9.35Q153.33 9.27 153.09 9.27L153.09 9.27Q152.75 9.27 152.31 9.53Q151.87 9.80 151.42 10.23Q150.96 10.65 150.51 11.21Q150.07 11.76 149.72 12.33Q149.38 12.91 149.16 13.45Q148.95 14 148.95 14.43L148.95 14.43Q148.95 14.53 148.96 14.55Q148.97 14.57 149.00 14.57L149.00 14.57Q149.13 14.57 149.34 14.43Q149.56 14.29 149.84 14.08Q150.11 13.86 150.40 13.57Q150.70 13.29 150.96 12.99L150.96 12.99Q151.56 12.32 152.06 11.49Q152.56 10.65 152.85 9.87L152.85 9.87Q153.23 9.90 153.52 10.00Q153.82 10.09 153.93 10.21L153.93 10.21Q153.45 11.30 153.17 12.04Q152.88 12.78 152.67 13.36L152.67 13.36Q152.29 14.36 151.96 15.20Q151.63 16.03 151.29 16.74Q150.95 17.44 150.55 18.05Q150.15 18.66 149.65 19.22L149.65 19.22Q149.41 19.49 149.11 19.69Q148.81 19.89 148.49 20.03Q148.18 20.17 147.88 20.24Q147.57 20.31 147.32 20.31L147.32 20.31Q146.99 20.31 146.64 20.24Q146.29 20.16 145.99 20.03Q145.68 19.89 145.46 19.72Q145.24 19.54 145.14 19.35ZM172.07 14.38L172.07 14.38Q172.07 13.87 172.24 13.07Q172.40 12.26 172.66 11.33Q172.91 10.40 173.25 9.43Q173.59 8.46 173.94 7.60Q174.29 6.75 174.62 6.10Q174.96 5.46 175.22 5.18L175.22 5.18Q175.36 5.19 175.59 5.29Q175.83 5.38 176.06 5.50Q176.30 5.63 176.50 5.78Q176.69 5.92 176.75 6.05L176.75 6.05Q176.34 6.41 175.95 7.15Q175.55 7.88 175.18 8.82Q174.80 9.76 174.48 10.80Q174.16 11.84 173.92 12.82Q173.68 13.80 173.55 14.64Q173.42 15.48 173.42 16.00L173.42 16.00Q173.42 16.24 173.46 16.30L173.46 16.30Q173.15 16.28 173.01 16.19Q172.87 16.10 172.80 16.00Q172.72 15.89 172.66 15.79Q172.59 15.68 172.47 15.62L172.47 15.62Q172.37 15.58 172.30 15.43Q172.23 15.27 172.18 15.09Q172.13 14.90 172.10 14.70Q172.07 14.50 172.07 14.38ZM185.75 8.64L185.75 8.64Q186.03 8.64 186.40 8.81Q186.76 8.97 187.04 9.24L187.04 9.24Q186.97 8.68 186.87 8.18Q186.76 7.69 186.56 7.15Q186.35 6.62 186.02 5.99Q185.68 5.36 185.18 4.55L185.18 4.55Q185.22 4.42 185.37 4.26Q185.51 4.09 185.70 3.94Q185.89 3.79 186.10 3.68Q186.30 3.57 186.48 3.54L186.48 3.54Q186.87 3.98 187.22 4.63Q187.57 5.28 187.84 6.03Q188.10 6.78 188.25 7.57Q188.40 8.37 188.40 9.10L188.40 9.10Q188.40 9.83 188.24 10.60Q188.08 11.37 187.79 12.10Q187.50 12.84 187.12 13.50Q186.75 14.15 186.31 14.67Q185.86 15.19 185.39 15.52Q184.91 15.85 184.44 15.93L184.44 15.93Q183.47 15.82 182.96 15.31Q182.45 14.80 182.45 13.90L182.45 13.90Q182.45 13.43 182.60 12.87Q182.74 12.31 182.99 11.75Q183.23 11.20 183.56 10.68Q183.89 10.15 184.26 9.73Q184.63 9.31 185.01 9.02Q185.39 8.72 185.75 8.64ZM184.32 15.37L184.32 15.37Q184.81 15.20 185.30 14.63Q185.79 14.06 186.19 13.28Q186.58 12.50 186.82 11.61Q187.07 10.72 187.07 9.90L187.07 9.90Q187.07 9.66 187.07 9.60Q187.07 9.55 187.05 9.49L187.05 9.49Q186.72 9.63 186.34 9.97Q185.96 10.30 185.58 10.75Q185.21 11.19 184.87 11.70Q184.53 12.22 184.27 12.74Q184.00 13.26 183.85 13.73Q183.69 14.21 183.69 14.57L183.69 14.57Q183.69 15.27 184.32 15.37ZM200.77 9.38L200.77 9.38Q200.72 10.25 200.47 10.87Q200.21 11.49 199.75 11.96Q199.28 12.43 198.60 12.81Q197.93 13.19 197.04 13.54L197.04 13.54Q197.04 13.62 197.03 13.71Q197.02 13.80 197.02 13.90L197.02 13.90Q197.02 14.08 197.05 14.28Q197.08 14.48 197.15 14.64Q197.22 14.81 197.34 14.92Q197.47 15.02 197.67 15.02L197.67 15.02Q198.04 15.02 198.41 14.85Q198.77 14.69 199.10 14.44Q199.43 14.20 199.72 13.91Q200.00 13.62 200.23 13.38L200.23 13.38Q200.37 13.51 200.47 13.62L200.47 13.62Q199.84 14.46 199.09 15.02Q198.34 15.57 197.67 15.72L197.67 15.72Q196.70 15.61 196.16 15.02Q195.62 14.42 195.62 13.58L195.62 13.58Q195.62 13.01 195.78 12.41Q195.94 11.82 196.23 11.26Q196.52 10.71 196.90 10.22Q197.29 9.73 197.73 9.37Q198.17 9.00 198.64 8.79Q199.11 8.58 199.57 8.58L199.57 8.58Q200.21 8.67 200.77 9.38ZM199.81 9.84L199.81 9.84Q199.43 9.90 199.02 10.15Q198.62 10.40 198.26 10.82Q197.90 11.24 197.61 11.80Q197.32 12.36 197.15 13.01L197.15 13.01Q198.27 12.45 199.01 11.63Q199.75 10.81 199.81 9.84ZM213.25 9.52L213.25 9.52Q213.39 9.52 213.58 9.57Q213.77 9.62 213.92 9.70Q214.07 9.77 214.18 9.86Q214.28 9.94 214.28 10.01L214.28 10.01Q214.00 10.60 213.77 11.19Q213.53 11.79 213.36 12.33Q213.19 12.88 213.10 13.36Q213.01 13.83 213.01 14.18L213.01 14.18Q213.01 14.57 213.09 14.83Q213.18 15.09 213.37 15.20L213.37 15.20Q213.21 15.32 212.94 15.39Q212.67 15.46 212.46 15.46L212.46 15.46Q211.71 15.46 211.71 14.42L211.71 14.42Q211.71 13.62 212.24 12.24L212.24 12.24Q211.96 12.88 211.60 13.45Q211.23 14.01 210.85 14.45Q210.48 14.88 210.09 15.15Q209.71 15.43 209.38 15.48L209.38 15.48Q208.87 15.46 208.54 14.99Q208.22 14.52 208.22 13.79L208.22 13.79Q208.22 13.01 208.56 12.14Q208.89 11.27 209.42 10.53Q209.94 9.79 210.56 9.29Q211.18 8.79 211.75 8.76L211.75 8.76Q211.89 8.81 212.07 8.93Q212.24 9.06 212.40 9.23Q212.56 9.39 212.67 9.57Q212.79 9.74 212.80 9.87L212.80 9.87Q212.24 9.95 211.65 10.42Q211.05 10.88 210.57 11.53Q210.08 12.18 209.78 12.92Q209.47 13.66 209.47 14.31L209.47 14.31Q209.47 14.57 209.66 14.64L209.66 14.64Q210.07 14.56 210.60 13.95Q211.13 13.34 211.89 12.07L211.89 12.07Q212.03 11.82 212.21 11.51Q212.38 11.20 212.56 10.86Q212.74 10.53 212.92 10.18Q213.09 9.84 213.25 9.52ZM226.83 9.60L226.83 9.60Q226.81 9.87 226.74 10.16Q226.66 10.44 226.55 10.68Q226.44 10.91 226.31 11.06Q226.18 11.21 226.07 11.21L226.07 11.21Q225.92 11.20 225.89 11.00L225.89 11.00Q225.89 10.96 225.93 10.87Q225.96 10.78 226.00 10.67Q226.04 10.56 226.08 10.44Q226.11 10.33 226.11 10.25L226.11 10.25Q226.11 10.05 226.02 9.92Q225.93 9.79 225.78 9.79L225.78 9.79Q225.22 9.79 224.92 10.49Q224.63 11.19 224.63 12.54L224.63 12.54Q224.63 12.68 224.64 12.71L224.64 12.71Q224.94 12.70 225.17 12.69Q225.40 12.68 225.62 12.68L225.62 12.68Q225.64 12.71 225.64 12.80L225.64 12.80Q225.64 12.92 225.58 12.98L225.58 12.98Q225.26 13.05 225.07 13.10Q224.88 13.15 224.78 13.19Q224.69 13.23 224.67 13.28Q224.64 13.33 224.64 13.41L224.64 13.41Q224.64 13.52 224.65 13.64Q224.66 13.75 224.66 13.92L224.66 13.92Q224.66 15.09 224.02 15.81Q223.38 16.52 222.25 16.63L222.25 16.63Q222.05 16.62 221.84 16.52Q221.63 16.42 221.45 16.27Q221.26 16.11 221.12 15.93Q220.98 15.74 220.92 15.54L220.92 15.54Q220.92 15.01 221.14 14.53Q221.37 14.04 221.75 13.67Q222.14 13.30 222.66 13.07Q223.19 12.84 223.80 12.80L223.80 12.80Q223.80 12.45 223.73 12.11Q223.66 11.77 223.59 11.46Q223.51 11.14 223.44 10.84Q223.37 10.54 223.37 10.25L223.37 10.25Q223.37 9.87 223.52 9.50Q223.68 9.13 223.93 8.81Q224.18 8.50 224.52 8.27Q224.85 8.05 225.22 7.97L225.22 7.97Q225.37 8.01 225.63 8.21Q225.89 8.41 226.14 8.67Q226.39 8.92 226.59 9.18Q226.79 9.44 226.83 9.60ZM222.21 15.99L222.21 15.99Q222.54 15.85 222.85 15.58Q223.15 15.32 223.37 14.98Q223.59 14.64 223.73 14.27Q223.86 13.89 223.86 13.52L223.86 13.52Q223.58 13.57 223.24 13.78Q222.91 14 222.61 14.30Q222.32 14.60 222.12 14.92Q221.93 15.25 221.93 15.48L221.93 15.48Q221.93 15.79 222.21 15.99ZM244.19 14.24L244.19 14.24Q244.19 14.11 244.21 13.92Q244.23 13.73 244.29 13.42Q244.34 13.10 244.43 12.66Q244.52 12.21 244.66 11.58L244.66 11.58Q244.69 11.44 244.79 11.13Q244.89 10.82 245.05 10.48Q245.21 10.14 245.44 9.81Q245.67 9.49 245.99 9.34L245.99 9.34Q246.23 9.39 246.62 9.63Q247.02 9.86 247.30 10.26L247.30 10.26Q246.97 10.63 246.76 10.99Q246.54 11.35 246.37 11.75Q246.19 12.14 246.04 12.56Q245.90 12.98 245.71 13.44L245.71 13.44Q245.56 13.83 245.43 14.25Q245.31 14.66 245.29 14.97L245.29 14.97Q245.29 15.22 245.29 15.32Q245.28 15.43 245.21 15.43L245.21 15.43Q245.15 15.43 244.99 15.36Q244.82 15.29 244.64 15.14Q244.47 14.99 244.33 14.77Q244.19 14.55 244.19 14.24ZM246.86 8.16L246.86 8.16Q246.86 8.08 246.90 7.91L246.90 7.91Q246.83 7.84 246.79 7.70Q246.74 7.56 246.74 7.45L246.74 7.45Q246.74 7.32 246.77 7.11Q246.81 6.89 246.86 6.64Q246.92 6.38 247.00 6.11Q247.09 5.84 247.17 5.61L247.17 5.61Q247.34 5.61 247.58 5.71Q247.83 5.80 248.08 5.94Q248.33 6.09 248.54 6.27Q248.75 6.44 248.86 6.59L248.86 6.59Q248.71 6.75 248.46 7.02Q248.21 7.29 247.97 7.59Q247.73 7.90 247.53 8.16Q247.34 8.43 247.28 8.54L247.28 8.54Q247.11 8.51 246.99 8.39Q246.86 8.27 246.86 8.16ZM256.75 8.39L256.75 8.39Q257.11 8.50 257.43 8.88Q257.75 9.27 257.91 9.73L257.91 9.73Q257.75 10.11 257.43 10.64Q257.11 11.17 256.79 11.72Q256.47 12.28 256.21 12.78Q255.95 13.27 255.91 13.59L255.91 13.59Q256.13 13.36 256.40 13.04Q256.68 12.73 256.94 12.41Q257.19 12.10 257.42 11.84Q257.64 11.58 257.77 11.45L257.77 11.45Q258.03 11.17 258.40 10.80Q258.76 10.43 259.16 10.10Q259.56 9.77 259.97 9.54Q260.37 9.31 260.71 9.31L260.71 9.31Q261.07 9.31 261.32 9.55Q261.56 9.80 261.70 10.07L261.70 10.07Q261.70 10.09 261.60 10.14Q261.49 10.19 261.30 10.42L261.30 10.42Q261.10 10.67 260.86 11.11Q260.61 11.55 260.38 12.06Q260.15 12.57 259.99 13.10Q259.84 13.64 259.84 14.07L259.84 14.07Q259.84 14.42 259.93 14.52Q260.02 14.62 260.19 14.62L260.19 14.62Q260.34 14.62 260.51 14.55Q260.68 14.48 260.78 14.48L260.78 14.48Q260.83 14.50 260.87 14.60Q260.90 14.69 260.90 14.76L260.90 14.76Q260.79 14.85 260.64 14.95Q260.48 15.05 260.32 15.13Q260.15 15.22 259.99 15.27Q259.83 15.33 259.70 15.33L259.70 15.33Q259.29 15.33 259.04 15.21Q258.78 15.09 258.63 14.90Q258.48 14.70 258.43 14.43Q258.37 14.15 258.37 13.85L258.37 13.85Q258.37 13.68 258.40 13.47Q258.43 13.26 258.51 12.97Q258.59 12.68 258.75 12.29Q258.90 11.89 259.14 11.33L259.14 11.33Q259.11 11.33 258.76 11.52Q258.41 11.72 258.01 12.12L258.01 12.12Q257.35 12.75 256.82 13.37Q256.30 13.99 255.75 14.74L255.75 14.74Q255.44 15.18 255.21 15.48Q254.98 15.78 254.81 15.88L254.81 15.88Q254.52 15.71 254.38 15.41Q254.24 15.11 254.17 14.78L254.17 14.78Q254.17 14.52 254.25 14.11Q254.32 13.71 254.46 13.21Q254.59 12.71 254.79 12.17Q254.98 11.62 255.22 11.07L255.22 11.07Q255.75 9.84 256.19 9.14Q256.63 8.44 256.75 8.39ZM270.66 9.81L269.86 9.81Q269.79 9.73 269.74 9.46Q269.68 9.18 269.68 8.99L269.68 8.99Q270.05 9.02 270.38 9.04Q270.72 9.06 271.00 9.07L271.00 9.07Q271.21 8.65 271.45 8.24Q271.70 7.83 271.93 7.48Q272.16 7.14 272.36 6.90Q272.57 6.66 272.68 6.59L272.68 6.59Q272.82 6.59 273.04 6.64Q273.25 6.69 273.48 6.77Q273.70 6.85 273.88 6.93Q274.06 7.01 274.13 7.10L274.13 7.10Q273.71 7.63 273.41 8.09Q273.11 8.54 272.76 9.13L272.76 9.13Q273.04 9.13 273.33 9.11Q273.62 9.10 273.91 9.07L273.91 9.07Q273.98 9.14 274.02 9.25Q274.06 9.35 274.06 9.46L274.06 9.46Q273.38 9.72 272.40 9.74L272.40 9.74Q272.05 10.42 271.78 11.08Q271.50 11.75 271.31 12.36Q271.12 12.98 271.02 13.52Q270.91 14.07 270.91 14.50L270.91 14.50Q270.91 15.12 271.38 15.19L271.38 15.19Q271.80 15.13 272.17 14.98Q272.55 14.83 272.85 14.59L272.85 14.59Q272.93 14.71 272.94 14.80L272.94 14.80Q272.86 14.92 272.66 15.09Q272.45 15.26 272.22 15.42Q271.98 15.58 271.75 15.69Q271.53 15.81 271.42 15.82L271.42 15.82Q271.07 15.81 270.72 15.67Q270.37 15.53 270.08 15.32Q269.79 15.11 269.61 14.85Q269.43 14.59 269.43 14.34L269.43 14.34Q269.43 14 269.52 13.49Q269.61 12.98 269.78 12.38Q269.95 11.77 270.17 11.12Q270.40 10.46 270.66 9.81L270.66 9.81ZM282.62 15.67L282.62 15.67Q281.82 15.58 281.34 14.97Q280.87 14.35 280.87 13.40L280.87 13.40Q280.87 12.84 281.04 12.24Q281.20 11.63 281.51 11.07Q281.82 10.50 282.24 10.00Q282.66 9.49 283.15 9.13L283.15 9.13Q283.92 8.55 284.59 8.55L284.59 8.55Q285.04 8.79 285.47 9.55L285.47 9.55Q285.54 9.55 285.60 9.54Q285.66 9.53 285.73 9.53L285.73 9.53Q286.47 9.53 286.47 10.85L286.47 10.85Q286.47 11.73 286.18 12.52Q285.89 13.31 285.38 13.96Q284.87 14.60 284.17 15.04Q283.46 15.48 282.62 15.67ZM283.33 11.26L283.33 11.26Q283.09 11.58 282.88 11.96Q282.67 12.33 282.52 12.72Q282.37 13.10 282.28 13.46Q282.20 13.82 282.20 14.10L282.20 14.10Q282.20 14.43 282.31 14.74Q282.42 15.05 282.56 15.09L282.56 15.09Q283.19 14.95 283.72 14.57Q284.24 14.18 284.63 13.61Q285.01 13.03 285.23 12.31Q285.45 11.58 285.45 10.75L285.45 10.75Q285.45 10.39 285.40 10.18Q285.36 9.97 285.26 9.81L285.26 9.81Q284.65 10.00 284.17 10.40Q283.68 10.81 283.33 11.26ZM305.47 14.45L305.47 14.45Q305.68 13.99 305.97 13.26Q306.26 12.53 306.59 11.68Q306.91 10.84 307.24 9.95Q307.58 9.06 307.87 8.26Q308.17 7.46 308.38 6.83Q308.60 6.20 308.70 5.87L308.70 5.87Q307.82 6.23 307.19 6.97Q306.56 7.71 306.24 8.83L306.24 8.83Q305.91 8.72 305.65 8.43Q305.38 8.15 305.30 7.71L305.30 7.71Q305.44 7.07 305.82 6.54Q306.21 6.01 306.80 5.63Q307.38 5.25 308.15 5.05Q308.92 4.84 309.81 4.84L309.81 4.84Q310.93 4.84 311.86 5.17Q312.80 5.50 313.47 6.09Q314.15 6.68 314.52 7.50Q314.90 8.33 314.90 9.34L314.90 9.34Q314.90 10.71 314.40 11.96Q313.89 13.20 313.03 14.15Q312.17 15.11 311.04 15.67Q309.90 16.24 308.66 16.24L308.66 16.24Q307.51 16.24 306.69 15.79Q305.87 15.33 305.47 14.45ZM310.41 5.54L310.41 5.54Q309.71 5.54 309.08 5.74L309.08 5.74Q309.69 5.96 310.10 6.21Q310.51 6.45 310.66 6.59L310.66 6.59Q310.55 6.75 310.33 7.14Q310.11 7.53 309.83 8.09Q309.54 8.65 309.22 9.32Q308.90 9.98 308.59 10.68L308.59 10.68Q307.79 12.46 307.43 13.48Q307.08 14.50 307.08 14.90L307.08 14.90Q307.27 14.97 307.55 14.99Q307.83 15.02 308.15 15.02L308.15 15.02Q309.29 15.02 310.30 14.50Q311.32 13.97 312.08 13.09Q312.84 12.21 313.28 11.04Q313.73 9.87 313.73 8.58L313.73 8.58Q313.73 7.14 312.83 6.34Q311.93 5.54 310.41 5.54ZM322.29 14.24L322.29 14.24Q322.29 14.11 322.31 13.92Q322.34 13.73 322.39 13.42Q322.45 13.10 322.54 12.66Q322.63 12.21 322.77 11.58L322.77 11.58Q322.80 11.44 322.90 11.13Q322.99 10.82 323.15 10.48Q323.32 10.14 323.55 9.81Q323.78 9.49 324.10 9.34L324.10 9.34Q324.34 9.39 324.73 9.63Q325.12 9.86 325.40 10.26L325.40 10.26Q325.08 10.63 324.86 10.99Q324.65 11.35 324.47 11.75Q324.30 12.14 324.15 12.56Q324.00 12.98 323.82 13.44L323.82 13.44Q323.67 13.83 323.54 14.25Q323.41 14.66 323.40 14.97L323.40 14.97Q323.40 15.22 323.39 15.32Q323.39 15.43 323.32 15.43L323.32 15.43Q323.26 15.43 323.09 15.36Q322.92 15.29 322.75 15.14Q322.57 14.99 322.43 14.77Q322.29 14.55 322.29 14.24ZM324.97 8.16L324.97 8.16Q324.97 8.08 325.01 7.91L325.01 7.91Q324.94 7.84 324.89 7.70Q324.84 7.56 324.84 7.45L324.84 7.45Q324.84 7.32 324.88 7.11Q324.91 6.89 324.97 6.64Q325.02 6.38 325.11 6.11Q325.19 5.84 325.28 5.61L325.28 5.61Q325.44 5.61 325.69 5.71Q325.93 5.80 326.19 5.94Q326.44 6.09 326.65 6.27Q326.86 6.44 326.97 6.59L326.97 6.59Q326.82 6.75 326.56 7.02Q326.31 7.29 326.07 7.59Q325.84 7.90 325.64 8.16Q325.44 8.43 325.39 8.54L325.39 8.54Q325.22 8.51 325.09 8.39Q324.97 8.27 324.97 8.16ZM329.76 19.35L329.76 19.35Q329.76 19.26 329.81 19.19Q329.87 19.12 329.94 19.05L329.94 19.05Q330.11 19.21 330.22 19.29Q330.34 19.38 330.45 19.43Q330.55 19.49 330.67 19.50Q330.78 19.52 330.93 19.52L330.93 19.52Q331.66 19.52 332.32 19.13Q332.98 18.75 333.56 18.02Q334.14 17.29 334.61 16.24Q335.09 15.19 335.45 13.86L335.45 13.86Q335.29 14.03 335.04 14.23Q334.80 14.43 334.53 14.62Q334.26 14.80 334.00 14.95Q333.75 15.11 333.56 15.18L333.56 15.18Q333.33 15.13 333.12 14.97Q332.92 14.81 332.77 14.57Q332.61 14.34 332.53 14.04Q332.44 13.73 332.44 13.40L332.44 13.40Q332.44 12.85 332.65 12.28Q332.85 11.70 333.19 11.15Q333.52 10.60 333.98 10.11Q334.43 9.62 334.94 9.25Q335.45 8.89 335.98 8.67Q336.50 8.46 337.01 8.46L337.01 8.46Q337.50 8.46 337.74 8.66Q337.99 8.86 338.10 9.35L338.10 9.35Q337.95 9.27 337.71 9.27L337.71 9.27Q337.37 9.27 336.93 9.53Q336.49 9.80 336.03 10.23Q335.58 10.65 335.13 11.21Q334.68 11.76 334.34 12.33Q334.00 12.91 333.78 13.45Q333.56 14 333.56 14.43L333.56 14.43Q333.56 14.53 333.58 14.55Q333.59 14.57 333.62 14.57L333.62 14.57Q333.75 14.57 333.96 14.43Q334.18 14.29 334.45 14.08Q334.73 13.86 335.02 13.57Q335.31 13.29 335.58 12.99L335.58 12.99Q336.18 12.32 336.68 11.49Q337.18 10.65 337.47 9.87L337.47 9.87Q337.85 9.90 338.14 10.00Q338.44 10.09 338.55 10.21L338.55 10.21Q338.07 11.30 337.78 12.04Q337.50 12.78 337.29 13.36L337.29 13.36Q336.91 14.36 336.58 15.20Q336.25 16.03 335.91 16.74Q335.57 17.44 335.17 18.05Q334.77 18.66 334.26 19.22L334.26 19.22Q334.03 19.49 333.72 19.69Q333.42 19.89 333.11 20.03Q332.79 20.17 332.49 20.24Q332.19 20.31 331.94 20.31L331.94 20.31Q331.60 20.31 331.25 20.24Q330.90 20.16 330.60 20.03Q330.30 19.89 330.08 19.72Q329.85 19.54 329.76 19.35ZM345.90 14.24L345.90 14.24Q345.90 14.11 345.92 13.92Q345.94 13.73 346.00 13.42Q346.05 13.10 346.14 12.66Q346.23 12.21 346.37 11.58L346.37 11.58Q346.40 11.44 346.50 11.13Q346.60 10.82 346.76 10.48Q346.92 10.14 347.15 9.81Q347.38 9.49 347.70 9.34L347.70 9.34Q347.94 9.39 348.33 9.63Q348.73 9.86 349.01 10.26L349.01 10.26Q348.68 10.63 348.47 10.99Q348.25 11.35 348.07 11.75Q347.90 12.14 347.75 12.56Q347.61 12.98 347.42 13.44L347.42 13.44Q347.27 13.83 347.14 14.25Q347.02 14.66 347.00 14.97L347.00 14.97Q347.00 15.22 347.00 15.32Q346.99 15.43 346.92 15.43L346.92 15.43Q346.86 15.43 346.70 15.36Q346.53 15.29 346.35 15.14Q346.18 14.99 346.04 14.77Q345.90 14.55 345.90 14.24ZM348.57 8.16L348.57 8.16Q348.57 8.08 348.61 7.91L348.61 7.91Q348.54 7.84 348.49 7.70Q348.45 7.56 348.45 7.45L348.45 7.45Q348.45 7.32 348.48 7.11Q348.52 6.89 348.57 6.64Q348.63 6.38 348.71 6.11Q348.80 5.84 348.88 5.61L348.88 5.61Q349.05 5.61 349.29 5.71Q349.54 5.80 349.79 5.94Q350.04 6.09 350.25 6.27Q350.46 6.44 350.57 6.59L350.57 6.59Q350.42 6.75 350.17 7.02Q349.92 7.29 349.68 7.59Q349.44 7.90 349.24 8.16Q349.05 8.43 348.99 8.54L348.99 8.54Q348.82 8.51 348.70 8.39Q348.57 8.27 348.57 8.16ZM357.71 9.81L356.92 9.81Q356.85 9.73 356.79 9.46Q356.73 9.18 356.73 8.99L356.73 8.99Q357.10 9.02 357.43 9.04Q357.77 9.06 358.05 9.07L358.05 9.07Q358.26 8.65 358.50 8.24Q358.75 7.83 358.98 7.48Q359.21 7.14 359.41 6.90Q359.62 6.66 359.73 6.59L359.73 6.59Q359.87 6.59 360.09 6.64Q360.30 6.69 360.53 6.77Q360.75 6.85 360.93 6.93Q361.12 7.01 361.19 7.10L361.19 7.10Q360.77 7.63 360.46 8.09Q360.16 8.54 359.81 9.13L359.81 9.13Q360.09 9.13 360.38 9.11Q360.67 9.10 360.96 9.07L360.96 9.07Q361.03 9.14 361.07 9.25Q361.12 9.35 361.12 9.46L361.12 9.46Q360.43 9.72 359.45 9.74L359.45 9.74Q359.10 10.42 358.83 11.08Q358.55 11.75 358.36 12.36Q358.18 12.98 358.07 13.52Q357.97 14.07 357.97 14.50L357.97 14.50Q357.97 15.12 358.43 15.19L358.43 15.19Q358.85 15.13 359.23 14.98Q359.60 14.83 359.90 14.59L359.90 14.59Q359.98 14.71 360.00 14.80L360.00 14.80Q359.91 14.92 359.71 15.09Q359.51 15.26 359.27 15.42Q359.03 15.58 358.81 15.69Q358.58 15.81 358.47 15.82L358.47 15.82Q358.12 15.81 357.77 15.67Q357.42 15.53 357.13 15.32Q356.85 15.11 356.66 14.85Q356.48 14.59 356.48 14.34L356.48 14.34Q356.48 14 356.57 13.49Q356.66 12.98 356.83 12.38Q357.00 11.77 357.22 11.12Q357.45 10.46 357.71 9.81L357.71 9.81ZM372.85 9.52L372.85 9.52Q372.99 9.52 373.18 9.57Q373.37 9.62 373.52 9.70Q373.67 9.77 373.78 9.86Q373.88 9.94 373.88 10.01L373.88 10.01Q373.60 10.60 373.37 11.19Q373.13 11.79 372.96 12.33Q372.79 12.88 372.70 13.36Q372.61 13.83 372.61 14.18L372.61 14.18Q372.61 14.57 372.69 14.83Q372.78 15.09 372.97 15.20L372.97 15.20Q372.81 15.32 372.54 15.39Q372.27 15.46 372.06 15.46L372.06 15.46Q371.31 15.46 371.31 14.42L371.31 14.42Q371.31 13.62 371.84 12.24L371.84 12.24Q371.56 12.88 371.20 13.45Q370.83 14.01 370.45 14.45Q370.08 14.88 369.69 15.15Q369.31 15.43 368.98 15.48L368.98 15.48Q368.47 15.46 368.14 14.99Q367.82 14.52 367.82 13.79L367.82 13.79Q367.82 13.01 368.16 12.14Q368.49 11.27 369.02 10.53Q369.54 9.79 370.16 9.29Q370.78 8.79 371.35 8.76L371.35 8.76Q371.49 8.81 371.66 8.93Q371.84 9.06 372.00 9.23Q372.16 9.39 372.27 9.57Q372.39 9.74 372.40 9.87L372.40 9.87Q371.84 9.95 371.24 10.42Q370.65 10.88 370.17 11.53Q369.68 12.18 369.38 12.92Q369.07 13.66 369.07 14.31L369.07 14.31Q369.07 14.57 369.26 14.64L369.26 14.64Q369.67 14.56 370.20 13.95Q370.73 13.34 371.49 12.07L371.49 12.07Q371.63 11.82 371.80 11.51Q371.98 11.20 372.16 10.86Q372.34 10.53 372.52 10.18Q372.69 9.84 372.85 9.52ZM381.58 14.28L381.58 14.28Q381.58 13.66 381.88 12.55Q382.17 11.44 382.70 9.95L382.70 9.95Q383.57 7.59 384.33 6.01Q385.10 4.44 385.83 3.56L385.83 3.56Q385.99 3.58 386.24 3.70Q386.48 3.81 386.72 3.94Q386.96 4.07 387.15 4.21Q387.34 4.35 387.39 4.44L387.39 4.44Q386.30 5.73 385.48 7.21Q384.65 8.69 383.96 10.61L383.96 10.61Q383.38 12.26 383.07 13.59Q382.76 14.91 382.76 15.79L382.76 15.79Q382.76 16.03 382.76 16.09Q382.76 16.14 382.77 16.20L382.77 16.20Q382.58 16.17 382.44 16.10Q382.30 16.03 382.26 15.93L382.26 15.93Q382.23 15.86 382.10 15.73Q381.98 15.60 381.88 15.53L381.88 15.53Q381.75 15.44 381.67 15.09Q381.58 14.73 381.58 14.28ZM411.81 7.46L411.81 7.46Q411.81 8.13 411.51 8.73Q411.21 9.32 410.68 9.79Q410.14 10.26 409.43 10.58Q408.72 10.91 407.88 11.02L407.88 11.02Q408.09 11.65 408.39 12.31Q408.69 12.98 409.04 13.59Q409.39 14.21 409.77 14.73Q410.14 15.25 410.51 15.58L410.51 15.58Q410.44 15.72 410.30 15.86Q410.17 16.00 410.00 16.12Q409.82 16.24 409.63 16.32Q409.44 16.39 409.28 16.39L409.28 16.39Q408.97 16.39 408.69 16.10Q408.41 15.81 408.12 15.17Q407.83 14.53 407.52 13.52Q407.20 12.50 406.83 11.07L406.83 11.07Q406.67 11.07 406.52 11.07Q406.36 11.07 406.28 11.05L406.28 11.05Q406.18 10.99 406.07 10.85L406.07 10.85Q405.69 11.66 405.40 12.38Q405.10 13.09 404.87 13.76Q404.64 14.42 404.47 15.04Q404.29 15.67 404.17 16.31L404.17 16.31Q403.69 16.20 403.34 15.90Q402.99 15.61 402.68 15.08L402.68 15.08Q402.74 14.95 402.80 14.83Q402.86 14.71 402.96 14.50Q403.06 14.28 403.21 13.94Q403.35 13.61 403.60 13.05Q403.84 12.49 404.19 11.68Q404.53 10.86 405.02 9.70L405.02 9.70Q405.24 9.18 405.40 8.79Q405.57 8.40 405.69 8.04Q405.82 7.69 405.92 7.33Q406.03 6.97 406.14 6.51L406.14 6.51Q405.50 6.73 404.94 7.01Q404.39 7.28 404.03 7.59L404.03 7.59Q403.90 7.50 403.77 7.34Q403.63 7.17 403.52 6.96Q403.41 6.76 403.33 6.55Q403.24 6.34 403.23 6.17L403.23 6.17Q403.65 5.89 404.26 5.66Q404.87 5.42 405.55 5.24Q406.24 5.07 406.95 4.97Q407.67 4.87 408.28 4.87L408.28 4.87Q409.96 4.87 410.89 5.56Q411.81 6.26 411.81 7.46ZM408.23 6.02L408.39 6.29Q408.30 6.41 408.09 6.79Q407.88 7.17 407.60 7.69Q407.33 8.22 407.03 8.83Q406.73 9.45 406.45 10.05L406.45 10.05Q407.50 10.05 408.38 9.86Q409.26 9.66 409.91 9.30Q410.55 8.95 410.91 8.46Q411.26 7.98 411.26 7.39L411.26 7.39Q411.26 6.69 410.76 6.32Q410.26 5.95 409.21 5.95L409.21 5.95Q408.97 5.95 408.73 5.97Q408.49 5.99 408.23 6.02L408.23 6.02ZM423.33 9.38L423.33 9.38Q423.28 10.25 423.02 10.87Q422.77 11.49 422.30 11.96Q421.83 12.43 421.16 12.81Q420.49 13.19 419.59 13.54L419.59 13.54Q419.59 13.62 419.59 13.71Q419.58 13.80 419.58 13.90L419.58 13.90Q419.58 14.08 419.61 14.28Q419.64 14.48 419.71 14.64Q419.78 14.81 419.90 14.92Q420.03 15.02 420.22 15.02L420.22 15.02Q420.60 15.02 420.97 14.85Q421.33 14.69 421.66 14.44Q421.99 14.20 422.27 13.91Q422.56 13.62 422.79 13.38L422.79 13.38Q422.93 13.51 423.02 13.62L423.02 13.62Q422.39 14.46 421.64 15.02Q420.90 15.57 420.22 15.72L420.22 15.72Q419.26 15.61 418.72 15.02Q418.18 14.42 418.18 13.58L418.18 13.58Q418.18 13.01 418.34 12.41Q418.50 11.82 418.79 11.26Q419.08 10.71 419.46 10.22Q419.85 9.73 420.29 9.37Q420.73 9.00 421.20 8.79Q421.67 8.58 422.13 8.58L422.13 8.58Q422.77 8.67 423.33 9.38ZM422.37 9.84L422.37 9.84Q421.99 9.90 421.58 10.15Q421.18 10.40 420.82 10.82Q420.46 11.24 420.17 11.80Q419.87 12.36 419.71 13.01L419.71 13.01Q420.83 12.45 421.57 11.63Q422.31 10.81 422.37 9.84ZM435.81 9.52L435.81 9.52Q435.95 9.52 436.13 9.57Q436.32 9.62 436.48 9.70Q436.63 9.77 436.74 9.86Q436.84 9.94 436.84 10.01L436.84 10.01Q436.56 10.60 436.32 11.19Q436.09 11.79 435.92 12.33Q435.75 12.88 435.66 13.36Q435.57 13.83 435.57 14.18L435.57 14.18Q435.57 14.57 435.65 14.83Q435.74 15.09 435.93 15.20L435.93 15.20Q435.76 15.32 435.50 15.39Q435.23 15.46 435.02 15.46L435.02 15.46Q434.27 15.46 434.27 14.42L434.27 14.42Q434.27 13.62 434.80 12.24L434.80 12.24Q434.52 12.88 434.15 13.45Q433.79 14.01 433.41 14.45Q433.03 14.88 432.65 15.15Q432.26 15.43 431.94 15.48L431.94 15.48Q431.42 15.46 431.10 14.99Q430.78 14.52 430.78 13.79L430.78 13.79Q430.78 13.01 431.12 12.14Q431.45 11.27 431.98 10.53Q432.50 9.79 433.12 9.29Q433.73 8.79 434.31 8.76L434.31 8.76Q434.45 8.81 434.62 8.93Q434.80 9.06 434.96 9.23Q435.12 9.39 435.23 9.57Q435.34 9.74 435.36 9.87L435.36 9.87Q434.80 9.95 434.20 10.42Q433.61 10.88 433.12 11.53Q432.64 12.18 432.33 12.92Q432.03 13.66 432.03 14.31L432.03 14.31Q432.03 14.57 432.22 14.64L432.22 14.64Q432.63 14.56 433.16 13.95Q433.69 13.34 434.45 12.07L434.45 12.07Q434.59 11.82 434.76 11.51Q434.94 11.20 435.12 10.86Q435.30 10.53 435.48 10.18Q435.65 9.84 435.81 9.52ZM444.54 14.28L444.54 14.28Q444.54 13.66 444.84 12.55Q445.13 11.44 445.66 9.95L445.66 9.95Q446.53 7.59 447.29 6.01Q448.06 4.44 448.78 3.56L448.78 3.56Q448.95 3.58 449.20 3.70Q449.44 3.81 449.68 3.94Q449.92 4.07 450.11 4.21Q450.30 4.35 450.35 4.44L450.35 4.44Q449.26 5.73 448.43 7.21Q447.61 8.69 446.92 10.61L446.92 10.61Q446.33 12.26 446.03 13.59Q445.72 14.91 445.72 15.79L445.72 15.79Q445.72 16.03 445.72 16.09Q445.72 16.14 445.73 16.20L445.73 16.20Q445.54 16.17 445.40 16.10Q445.26 16.03 445.21 15.93L445.21 15.93Q445.19 15.86 445.06 15.73Q444.93 15.60 444.84 15.53L444.84 15.53Q444.71 15.44 444.63 15.09Q444.54 14.73 444.54 14.28ZM454.87 14.24L454.87 14.24Q454.87 14.11 454.89 13.92Q454.92 13.73 454.97 13.42Q455.03 13.10 455.12 12.66Q455.21 12.21 455.35 11.58L455.35 11.58Q455.38 11.44 455.48 11.13Q455.57 10.82 455.73 10.48Q455.90 10.14 456.13 9.81Q456.36 9.49 456.68 9.34L456.68 9.34Q456.92 9.39 457.31 9.63Q457.70 9.86 457.98 10.26L457.98 10.26Q457.66 10.63 457.44 10.99Q457.23 11.35 457.05 11.75Q456.88 12.14 456.73 12.56Q456.58 12.98 456.40 13.44L456.40 13.44Q456.25 13.83 456.12 14.25Q455.99 14.66 455.98 14.97L455.98 14.97Q455.98 15.22 455.97 15.32Q455.97 15.43 455.90 15.43L455.90 15.43Q455.84 15.43 455.67 15.36Q455.50 15.29 455.33 15.14Q455.15 14.99 455.01 14.77Q454.87 14.55 454.87 14.24ZM457.55 8.16L457.55 8.16Q457.55 8.08 457.59 7.91L457.59 7.91Q457.52 7.84 457.47 7.70Q457.42 7.56 457.42 7.45L457.42 7.45Q457.42 7.32 457.46 7.11Q457.49 6.89 457.55 6.64Q457.60 6.38 457.69 6.11Q457.77 5.84 457.86 5.61L457.86 5.61Q458.02 5.61 458.27 5.71Q458.51 5.80 458.77 5.94Q459.02 6.09 459.23 6.27Q459.44 6.44 459.55 6.59L459.55 6.59Q459.40 6.75 459.14 7.02Q458.89 7.29 458.65 7.59Q458.42 7.90 458.22 8.16Q458.02 8.43 457.97 8.54L457.97 8.54Q457.80 8.51 457.67 8.39Q457.55 8.27 457.55 8.16ZM466.69 9.81L465.89 9.81Q465.82 9.73 465.77 9.46Q465.71 9.18 465.71 8.99L465.71 8.99Q466.07 9.02 466.41 9.04Q466.75 9.06 467.03 9.07L467.03 9.07Q467.24 8.65 467.48 8.24Q467.73 7.83 467.96 7.48Q468.19 7.14 468.39 6.90Q468.59 6.66 468.71 6.59L468.71 6.59Q468.85 6.59 469.06 6.64Q469.28 6.69 469.50 6.77Q469.73 6.85 469.91 6.93Q470.09 7.01 470.16 7.10L470.16 7.10Q469.74 7.63 469.44 8.09Q469.14 8.54 468.79 9.13L468.79 9.13Q469.07 9.13 469.36 9.11Q469.64 9.10 469.94 9.07L469.94 9.07Q470.01 9.14 470.05 9.25Q470.09 9.35 470.09 9.46L470.09 9.46Q469.41 9.72 468.43 9.74L468.43 9.74Q468.08 10.42 467.80 11.08Q467.53 11.75 467.34 12.36Q467.15 12.98 467.05 13.52Q466.94 14.07 466.94 14.50L466.94 14.50Q466.94 15.12 467.40 15.19L467.40 15.19Q467.82 15.13 468.20 14.98Q468.58 14.83 468.87 14.59L468.87 14.59Q468.96 14.71 468.97 14.80L468.97 14.80Q468.89 14.92 468.68 15.09Q468.48 15.26 468.24 15.42Q468.01 15.58 467.78 15.69Q467.56 15.81 467.45 15.82L467.45 15.82Q467.10 15.81 466.75 15.67Q466.40 15.53 466.11 15.32Q465.82 15.11 465.64 14.85Q465.46 14.59 465.46 14.34L465.46 14.34Q465.46 14 465.55 13.49Q465.64 12.98 465.81 12.38Q465.98 11.77 466.20 11.12Q466.42 10.46 466.69 9.81L466.69 9.81ZM482.26 13.01L482.26 13.01Q481.94 14.03 481.61 14.87Q481.29 15.71 480.93 16.41Q480.56 17.12 480.14 17.72Q479.72 18.31 479.22 18.84L479.22 18.84Q478.58 19.52 477.89 19.87Q477.20 20.23 476.52 20.23L476.52 20.23Q476.17 20.23 475.82 20.15Q475.48 20.08 475.18 19.94Q474.88 19.81 474.65 19.64Q474.42 19.46 474.32 19.26L474.32 19.26Q474.32 19.10 474.52 18.97L474.52 18.97Q474.68 19.12 474.80 19.21Q474.91 19.29 475.01 19.35Q475.12 19.40 475.24 19.42Q475.36 19.43 475.51 19.43L475.51 19.43Q476.31 19.43 477.07 18.96Q477.83 18.49 478.51 17.63Q479.19 16.77 479.75 15.55Q480.31 14.32 480.70 12.81L480.70 12.81Q480.52 13.09 480.26 13.50Q479.99 13.90 479.67 14.30Q479.35 14.70 479.00 15.02Q478.66 15.34 478.34 15.46L478.34 15.46Q478.11 15.44 477.87 15.37Q477.62 15.29 477.41 15.15Q477.19 15.01 477.02 14.81Q476.85 14.62 476.80 14.36L476.80 14.36Q476.80 13.96 476.83 13.71Q476.85 13.47 476.92 13.17L476.92 13.17Q477.05 12.64 477.29 11.97Q477.54 11.30 477.87 10.65Q478.20 10.00 478.60 9.43Q479.00 8.86 479.43 8.54L479.43 8.54Q479.54 8.54 479.71 8.56Q479.88 8.58 480.06 8.64Q480.24 8.69 480.41 8.77Q480.58 8.85 480.70 8.97L480.70 8.97Q480.55 9.11 480.03 9.91Q479.51 10.71 478.88 12.21L478.88 12.21Q478.81 12.36 478.72 12.66Q478.62 12.95 478.53 13.27Q478.44 13.59 478.37 13.90Q478.30 14.21 478.30 14.39L478.30 14.39Q478.30 14.50 478.33 14.56Q478.37 14.62 478.39 14.64L478.39 14.64Q478.65 14.60 479.07 14.23Q479.49 13.86 480.02 13.08L480.02 13.08Q480.35 12.57 480.63 12.07Q480.91 11.58 481.19 11.07Q481.46 10.57 481.75 10.04Q482.05 9.51 482.38 8.95L482.38 8.95Q482.57 8.95 482.78 8.99Q482.99 9.03 483.18 9.09Q483.38 9.16 483.52 9.23Q483.67 9.31 483.74 9.39L483.74 9.39Q483.31 10.32 482.93 11.20Q482.55 12.08 482.26 13.01Z"></path></g></svg>